<svg version="1.1" id="Layer_1" xmlns="http://www.w3.org/2000/svg" xmlns:xlink="http://www.w3.org/1999/xlink" x="0px" y="0px"
	 width="100%" viewBox="0 0 128 128" enable-background="new 0 0 128 128" xml:space="preserve">
<path fill="#4D4D4D" opacity="1.000000" stroke="none" 
	d="
M73.000000,129.000000 
	C48.666668,129.000000 24.833334,129.000000 1.000000,129.000000 
	C1.000000,86.333336 1.000000,43.666668 1.000000,1.000000 
	C43.666668,1.000000 86.333336,1.000000 129.000000,1.000000 
	C129.000000,43.666668 129.000000,86.333336 129.000000,129.000000 
	C110.500000,129.000000 92.000000,129.000000 73.000000,129.000000 
M110.040718,62.440128 
	C100.646759,67.859383 91.252800,73.278641 81.026825,79.177879 
	C92.068939,83.831055 102.065842,88.043770 113.195938,92.734024 
	C112.890694,85.825890 112.759064,79.921669 112.324692,74.039803 
	C112.032928,70.088921 111.312500,66.169678 110.040718,62.440128 
M30.349617,57.193745 
	C29.986069,56.138840 29.622519,55.083931 29.258970,54.029026 
	C31.364199,53.725628 33.469429,53.422230 35.813080,53.084473 
	C37.126053,49.137508 37.033085,48.308582 32.851372,46.964676 
	C26.245998,44.841862 19.476883,43.228554 12.950575,41.446968 
	C14.946445,44.697208 17.045378,48.115288 19.826046,52.643555 
	C17.217125,53.011784 15.343448,52.931164 13.777456,53.586166 
	C11.895407,54.373356 10.275271,55.786736 8.541735,56.928997 
	C9.012300,57.478867 9.482864,58.028736 9.953429,58.578606 
	C11.720207,58.709702 13.653050,58.425339 15.221618,59.052315 
	C19.386719,60.717159 23.375273,62.818272 27.471588,64.662468 
	C30.350304,65.958481 32.826317,66.158630 34.167934,62.375793 
	C35.285725,59.224072 34.499454,57.628033 30.349617,57.193745 
z"/>
<path fill="#7871F3" opacity="1.000000" stroke="none" 
	d="
M110.412292,62.338203 
	C111.312500,66.169678 112.032928,70.088921 112.324692,74.039803 
	C112.759064,79.921669 112.890694,85.825890 113.195938,92.734024 
	C102.065842,88.043770 92.068939,83.831055 81.026825,79.177879 
	C91.252800,73.278641 100.646759,67.859383 110.412292,62.338203 
z"/>
<path fill="#DB0420" opacity="1.000000" stroke="none" 
	d="
M30.732607,57.321884 
	C34.499454,57.628033 35.285725,59.224072 34.167934,62.375793 
	C32.826317,66.158630 30.350304,65.958481 27.471588,64.662468 
	C23.375273,62.818272 19.386719,60.717159 15.221618,59.052315 
	C13.653050,58.425339 11.720207,58.709702 9.953429,58.578606 
	C9.482864,58.028736 9.012300,57.478867 8.541735,56.928997 
	C10.275271,55.786736 11.895407,54.373356 13.777456,53.586166 
	C15.343448,52.931164 17.217125,53.011784 19.826046,52.643555 
	C17.045378,48.115288 14.946445,44.697208 12.950575,41.446968 
	C19.476883,43.228554 26.245998,44.841862 32.851372,46.964676 
	C37.033085,48.308582 37.126053,49.137508 35.813080,53.084473 
	C33.469429,53.422230 31.364199,53.725628 29.258970,54.029026 
	C29.622519,55.083931 29.986069,56.138840 30.732607,57.321884 
z"/>
</svg>